<?xml version="1.0" encoding="utf-8"?>
<!-- Generator: Adobe Illustrator 15.0.0, SVG Export Plug-In . SVG Version: 6.00 Build 0)  -->
<!DOCTYPE svg PUBLIC "-//W3C//DTD SVG 1.1//EN" "http://www.w3.org/Graphics/SVG/1.1/DTD/svg11.dtd">
<svg version="1.1" xmlns="http://www.w3.org/2000/svg" xmlns:xlink="http://www.w3.org/1999/xlink" x="0px" y="0px" width="800px"
	 height="600px" viewBox="0 0 800 600" enable-background="new 0 0 800 600" xml:space="preserve">
<g id="Layer_2">
	<rect x="-2" y="-4" fill-rule="evenodd" clip-rule="evenodd" fill="#FE001A" width="802" height="604"/>
</g>
<g id="Layer_1">
	<g opacity="0.5">
		<path fill-rule="evenodd" clip-rule="evenodd" fill="#FFFFFF" d="M0,255.481c50.213,31.777,102.934,59.528,164.425,79.087
			c31.016,9.864,63.458,18.072,98.467,23.444c35.431,5.436,72.873,7.54,113.472,7.814c79.489,0.537,148.511-12.702,215.689-26.571
			C659.54,325.322,719.805,301,800.24,304.558c0,15.839,0,31.677,0,47.516c-59.182-18.89-141.538-14.843-207.25-5.628
			c-66.887,9.381-131.347,22.961-195.683,33.761c-65.393,10.976-136.042,19.45-210.375,16.881
			C113.822,394.558,54.649,375.662,0,354.573C0,321.543,0,288.512,0,255.481z"/>
	</g>
</g>
</svg>
