<?xml version="1.0" encoding="utf-8"?>
<!-- Generator: Adobe Illustrator 15.0.0, SVG Export Plug-In . SVG Version: 6.00 Build 0)  -->
<!DOCTYPE svg PUBLIC "-//W3C//DTD SVG 1.1//EN" "http://www.w3.org/Graphics/SVG/1.1/DTD/svg11.dtd">
<svg version="1.1" id="Layer_1" xmlns="http://www.w3.org/2000/svg" xmlns:xlink="http://www.w3.org/1999/xlink" x="0px" y="0px"
	 width="800px" height="600px" viewBox="0 0 800 600" enable-background="new 0 0 800 600" xml:space="preserve">
<g>
	<path fill-rule="evenodd" clip-rule="evenodd" fill="#FFFFFF" d="M0,255.481c50.28,31.819,103.07,59.607,164.644,79.191
		c31.057,9.878,63.542,18.097,98.598,23.476c35.478,5.443,72.97,7.551,113.623,7.825c79.595,0.538,148.71-12.719,215.976-26.606
		c67.578-13.951,127.922-38.307,208.465-34.744c0,15.859,0,31.719,0,47.578c-59.26-18.914-141.727-14.862-207.525-5.635
		c-66.977,9.394-131.521,22.992-195.943,33.806c-65.48,10.99-136.223,19.476-210.656,16.902
		C113.974,394.743,54.722,375.821,0,354.705C0,321.631,0,288.556,0,255.481z"/>
	<path fill-rule="evenodd" clip-rule="evenodd" fill="#FFFFFF" d="M0,527.814c267.125,0,534.186,0,801.306,0
		C534.959,528.337,266.332,528.337,0,527.814z"/>
</g>
</svg>
